<?xml version="1.0" encoding="UTF-8"?>
<!DOCTYPE svg PUBLIC "-//W3C//DTD SVG 1.1//EN" "http://www.w3.org/Graphics/SVG/1.1/DTD/svg11.dtd">
<!-- Creator: CorelDRAW X7 -->
<svg xmlns="http://www.w3.org/2000/svg" xml:space="preserve" width="86.6986mm" height="37.9306mm" version="1.1" style="shape-rendering:geometricPrecision; text-rendering:geometricPrecision; image-rendering:optimizeQuality; fill-rule:evenodd; clip-rule:evenodd"
viewBox="0 0 8670 3793"
 xmlns:xlink="http://www.w3.org/1999/xlink">
 <defs>
  <style type="text/css">
   <![CDATA[
    .fil1 {fill:#2E4F9E}
    .fil0 {fill:#332C2B;fill-rule:nonzero}
    .fil2 {fill:#2E4F9E;fill-rule:nonzero}
   ]]>
  </style>
 </defs>
 <g id="Layer_x0020_1">
  <metadata id="CorelCorpID_0Corel-Layer"/>
  <g id="_1146827552">
   <path class="fil0" d="M4352 561l175 302 0 0 174 302 20 34 -40 0 -348 0 -349 0 -40 0 20 -34 174 -302 0 0 175 -302 20 -34 19 34zm135 325l0 0 -154 -268 -155 268 0 0 -154 267 309 0 308 0 -154 -267z"/>
   <path class="fil0" d="M4240 2011l-298 -517c92,71 205,117 328,129l65 113 65 -113c123,-12 235,-58 328,-129l-298 517 -95 164 -95 -164zm-550 -953l-516 -894 -96 -165 191 0 493 0 63 0 32 55 40 70 154 267c-67,33 -127,77 -179,129l-165 -287 -8 -14 -240 0 283 490c-37,82 -57,172 -57,267 0,28 2,55 5,82zm929 -667l154 -267 40 -70 32 -55 63 0 493 0 191 0 -96 165 -516 894c3,-27 5,-54 5,-82 0,-95 -20,-185 -57,-267l283 -490 -240 0 -8 14 -165 287c-52,-52 -112,-96 -179,-129z"/>
   <path class="fil1" d="M4335 109c479,0 867,388 867,867 0,479 -388,868 -867,868 -479,0 -867,-389 -867,-868 0,-479 388,-867 867,-867zm0 217c359,0 650,291 650,650 0,360 -291,651 -650,651 -359,0 -650,-291 -650,-651 0,-359 291,-650 650,-650z"/>
   <circle class="fil1" cx="4333" cy="573" r="175"/>
   <circle class="fil1" cx="4689" cy="1176" r="175"/>
   <circle class="fil1" cx="3984" cy="1176" r="175"/>
   <g>
    <path class="fil0" d="M2 3117c0,-122 33,-224 99,-308 67,-84 156,-126 267,-126 123,0 217,38 281,114 65,76 97,182 97,320 0,137 -33,246 -101,326 -68,81 -164,121 -288,121 -115,0 -202,-40 -264,-119 -61,-80 -91,-190 -91,-328zm157 0c0,99 17,176 51,231 33,54 82,82 147,82 75,0 133,-27 173,-81 39,-53 59,-131 59,-232 0,-200 -74,-300 -221,-300 -67,0 -119,27 -155,81 -36,54 -54,127 -54,219zm846 417l0 260 -145 0 0 -867 145 0 0 42c37,-36 81,-54 134,-54 199,0 298,109 298,328 0,102 -27,181 -82,236 -55,55 -130,83 -225,83 -46,0 -87,-9 -125,-28zm0 -454l0 327c26,21 57,32 93,32 67,0 115,-16 144,-48 29,-32 44,-82 44,-151 0,-74 -14,-126 -44,-156 -29,-30 -77,-45 -144,-45 -35,0 -66,13 -93,41zm1116 203l-445 0c3,50 20,88 51,116 32,28 74,41 127,41 67,0 117,-17 152,-51l56 111c-51,41 -127,62 -229,62 -95,0 -170,-28 -225,-84 -55,-55 -83,-133 -83,-233 0,-98 30,-178 91,-239 61,-61 133,-91 218,-91 91,0 163,27 218,81 54,54 82,123 82,206 0,18 -4,45 -13,81zm-439 -109l305 0c-10,-92 -60,-137 -151,-137 -82,0 -134,45 -154,137zm968 376l0 -360c0,-54 -10,-92 -30,-117 -21,-24 -54,-36 -100,-36 -21,0 -44,5 -68,18 -24,12 -43,27 -57,44l0 451 -145 0 0 -623 105 0 26 58c40,-47 98,-70 175,-70 74,0 133,22 175,67 43,44 65,106 65,186l0 382 -146 0z"/>
    <path class="fil2" d="M3639 3562l-84 0 -319 -864 167 0 197 576 208 -576 163 0 -332 864zm293 -325c0,-95 27,-172 82,-232 55,-60 127,-90 217,-90 95,0 168,29 220,86 53,58 79,136 79,236 0,99 -27,178 -80,237 -53,58 -126,88 -219,88 -94,0 -168,-30 -220,-89 -53,-59 -79,-138 -79,-236zm151 0c0,137 50,206 148,206 45,0 81,-18 108,-54 26,-35 40,-86 40,-152 0,-135 -50,-203 -148,-203 -45,0 -81,18 -108,54 -27,35 -40,85 -40,149zm589 -542l145 -35 0 700c0,77 23,122 69,137 -22,43 -61,65 -115,65 -66,0 -99,-46 -99,-138l0 -729zm727 855l0 -52c-20,17 -48,32 -85,45 -36,12 -69,19 -99,19 -145,0 -217,-77 -217,-231l0 -404 145 0 0 393c0,80 36,120 108,120 33,0 64,-8 92,-25 28,-17 47,-37 56,-60l0 -428 146 0 0 623 -146 0zm703 0l0 -360c0,-54 -10,-92 -31,-117 -20,-24 -53,-36 -99,-36 -21,0 -44,5 -68,18 -25,12 -43,27 -57,44l0 451 -145 0 0 -623 104 0 27 58c39,-47 98,-70 175,-70 74,0 132,22 175,67 43,44 64,106 64,186l0 382 -145 0zm324 -506l-72 0 0 -117 72 0 0 -127 146 -53 0 180 171 0 0 117 -171 0 0 273c0,45 7,76 21,95 14,18 38,27 73,27 36,0 68,-9 99,-28l0 133c-34,12 -82,18 -145,18 -62,0 -110,-18 -143,-53 -34,-35 -51,-85 -51,-150l0 -315zm1007 239l-445 0c3,50 20,88 51,116 32,28 74,41 127,41 67,0 117,-17 152,-51l56 111c-51,41 -127,62 -229,62 -95,0 -170,-28 -225,-84 -56,-55 -83,-133 -83,-233 0,-98 30,-178 91,-239 60,-61 133,-91 218,-91 90,0 163,27 217,81 55,54 82,123 82,206 0,18 -4,45 -12,81zm-439 -109l305 0c-10,-92 -60,-137 -151,-137 -83,0 -134,45 -154,137zm1124 109l-445 0c2,50 19,88 51,116 31,28 73,41 127,41 66,0 117,-17 151,-51l57 111c-52,41 -128,62 -230,62 -94,0 -170,-28 -225,-84 -55,-55 -83,-133 -83,-233 0,-98 31,-178 91,-239 61,-61 134,-91 219,-91 90,0 162,27 217,81 55,54 82,123 82,206 0,18 -4,45 -12,81zm-439 -109l305 0c-11,-92 -61,-137 -151,-137 -83,0 -134,45 -154,137zm927 -111c-26,-18 -54,-26 -85,-26 -34,0 -64,15 -90,46 -26,30 -39,68 -39,112l0 355 -146 0 0 -623 146 0 0 57c40,-46 95,-69 162,-69 50,0 88,8 114,23l-62 125z"/>
   </g>
  </g>
 </g>
</svg>
